<mxfile host="app.diagrams.net" agent="Mozilla/5.0 (Windows NT 10.0; Win64; x64) AppleWebKit/537.36 (KHTML, like Gecko) Chrome/133.0.0.0 Safari/537.36" version="26.0.16">
  <diagram name="Page-1" id="z-9ebIY5eiOuRzClkDdE">
    <mxGraphModel dx="1500" dy="814" grid="1" gridSize="10" guides="1" tooltips="1" connect="1" arrows="1" fold="1" page="1" pageScale="1" pageWidth="850" pageHeight="1100" math="0" shadow="0">
      <root>
        <mxCell id="0" />
        <mxCell id="1" parent="0" />
        <mxCell id="M6yBAGcX9ur8Zg72hbxL-10" value="" style="verticalLabelPosition=bottom;verticalAlign=top;html=1;strokeWidth=5;shape=mxgraph.arrows2.arrow;dy=0.6;dx=40;notch=0;rotation=0;" vertex="1" parent="1">
          <mxGeometry x="190" y="656" width="65" height="70" as="geometry" />
        </mxCell>
        <mxCell id="M6yBAGcX9ur8Zg72hbxL-4" value="" style="verticalLabelPosition=bottom;verticalAlign=top;html=1;strokeWidth=5;shape=mxgraph.arrows2.arrow;dy=0.6;dx=40;notch=0;rotation=90;" vertex="1" parent="1">
          <mxGeometry x="100.63" y="170" width="62.5" height="70" as="geometry" />
        </mxCell>
        <mxCell id="M6yBAGcX9ur8Zg72hbxL-2" value="" style="verticalLabelPosition=bottom;verticalAlign=top;html=1;strokeWidth=5;shape=mxgraph.arrows2.arrow;dy=0.6;dx=40;notch=0;rotation=90;" vertex="1" parent="1">
          <mxGeometry x="95.63" y="318.13" width="76.25" height="70" as="geometry" />
        </mxCell>
        <mxCell id="M6yBAGcX9ur8Zg72hbxL-1" value="Creating an instance of DataToolkit object" style="rounded=1;whiteSpace=wrap;html=1;absoluteArcSize=1;arcSize=14;strokeWidth=5;" vertex="1" parent="1">
          <mxGeometry x="70" y="240" width="130" height="80" as="geometry" />
        </mxCell>
        <mxCell id="M6yBAGcX9ur8Zg72hbxL-3" value="&lt;div&gt;Loading the dataset&lt;/div&gt;&lt;div&gt;as DataFrame&lt;/div&gt;" style="shape=parallelogram;html=1;strokeWidth=5;perimeter=parallelogramPerimeter;whiteSpace=wrap;rounded=1;arcSize=12;size=0.23;" vertex="1" parent="1">
          <mxGeometry x="50" y="120" width="172.5" height="50" as="geometry" />
        </mxCell>
        <mxCell id="M6yBAGcX9ur8Zg72hbxL-5" value="Calling method&lt;div&gt;filter_data(data, text_column, labels)&lt;/div&gt;" style="rounded=1;whiteSpace=wrap;html=1;absoluteArcSize=1;arcSize=14;strokeWidth=5;" vertex="1" parent="1">
          <mxGeometry x="30" y="397" width="203.76" height="52" as="geometry" />
        </mxCell>
        <mxCell id="M6yBAGcX9ur8Zg72hbxL-6" value="" style="verticalLabelPosition=bottom;verticalAlign=top;html=1;strokeWidth=5;shape=mxgraph.arrows2.arrow;dy=0.6;dx=40;notch=0;rotation=90;" vertex="1" parent="1">
          <mxGeometry x="95.63" y="446.13" width="66" height="70" as="geometry" />
        </mxCell>
        <mxCell id="M6yBAGcX9ur8Zg72hbxL-7" value="Defining the patterns to be eliminated" style="rounded=1;whiteSpace=wrap;html=1;absoluteArcSize=1;arcSize=14;strokeWidth=5;" vertex="1" parent="1">
          <mxGeometry x="57.5" y="516.13" width="165" height="71" as="geometry" />
        </mxCell>
        <mxCell id="M6yBAGcX9ur8Zg72hbxL-8" value="" style="verticalLabelPosition=bottom;verticalAlign=top;html=1;strokeWidth=5;shape=mxgraph.arrows2.arrow;dy=0.6;dx=40;notch=0;rotation=90;" vertex="1" parent="1">
          <mxGeometry x="104.38" y="585" width="55" height="70" as="geometry" />
        </mxCell>
        <mxCell id="M6yBAGcX9ur8Zg72hbxL-9" value="Iterating through each row calling the filter" style="rounded=1;whiteSpace=wrap;html=1;absoluteArcSize=1;arcSize=14;strokeWidth=5;" vertex="1" parent="1">
          <mxGeometry x="85" y="650" width="100" height="76" as="geometry" />
        </mxCell>
        <mxCell id="M6yBAGcX9ur8Zg72hbxL-11" value="Calling method&lt;div&gt;filter_text(text, patterns)&lt;/div&gt;" style="rounded=1;whiteSpace=wrap;html=1;absoluteArcSize=1;arcSize=14;strokeWidth=5;" vertex="1" parent="1">
          <mxGeometry x="255" y="665" width="150" height="46" as="geometry" />
        </mxCell>
        <mxCell id="M6yBAGcX9ur8Zg72hbxL-12" value="" style="verticalLabelPosition=bottom;verticalAlign=top;html=1;strokeWidth=5;shape=mxgraph.arrows2.arrow;dy=0.6;dx=40;notch=0;" vertex="1" parent="1">
          <mxGeometry x="405" y="653" width="65" height="70" as="geometry" />
        </mxCell>
        <mxCell id="M6yBAGcX9ur8Zg72hbxL-13" value="The text input is gets lower case." style="rounded=1;whiteSpace=wrap;html=1;absoluteArcSize=1;arcSize=14;strokeWidth=5;" vertex="1" parent="1">
          <mxGeometry x="470" y="665" width="130" height="49" as="geometry" />
        </mxCell>
        <mxCell id="M6yBAGcX9ur8Zg72hbxL-14" value="" style="verticalLabelPosition=bottom;verticalAlign=top;html=1;strokeWidth=5;shape=mxgraph.arrows2.arrow;dy=0.6;dx=40;notch=0;rotation=-90;" vertex="1" parent="1">
          <mxGeometry x="500" y="600" width="60" height="70" as="geometry" />
        </mxCell>
        <mxCell id="M6yBAGcX9ur8Zg72hbxL-15" value="Texts under 3 characters are ignored" style="rounded=1;whiteSpace=wrap;html=1;absoluteArcSize=1;arcSize=14;strokeWidth=5;" vertex="1" parent="1">
          <mxGeometry x="480" y="501.63" width="100" height="100" as="geometry" />
        </mxCell>
        <mxCell id="M6yBAGcX9ur8Zg72hbxL-16" value="" style="verticalLabelPosition=bottom;verticalAlign=top;html=1;strokeWidth=5;shape=mxgraph.arrows2.arrow;dy=0.6;dx=40;notch=0;rotation=-90;" vertex="1" parent="1">
          <mxGeometry x="495" y="431.63" width="70" height="70" as="geometry" />
        </mxCell>
        <mxCell id="M6yBAGcX9ur8Zg72hbxL-17" value="Diacritics are converted into their counter parts and enters into spaces" style="rounded=1;whiteSpace=wrap;html=1;absoluteArcSize=1;arcSize=14;strokeWidth=5;" vertex="1" parent="1">
          <mxGeometry x="445" y="356.63" width="170" height="75" as="geometry" />
        </mxCell>
        <mxCell id="M6yBAGcX9ur8Zg72hbxL-18" value="" style="verticalLabelPosition=bottom;verticalAlign=top;html=1;strokeWidth=5;shape=mxgraph.arrows2.arrow;dy=0.6;dx=40;notch=0;rotation=-90;" vertex="1" parent="1">
          <mxGeometry x="500" y="286.63" width="70" height="70" as="geometry" />
        </mxCell>
        <mxCell id="M6yBAGcX9ur8Zg72hbxL-19" value="Given patterns are removed" style="rounded=1;whiteSpace=wrap;html=1;absoluteArcSize=1;arcSize=14;strokeWidth=5;" vertex="1" parent="1">
          <mxGeometry x="460" y="237.5" width="170" height="50" as="geometry" />
        </mxCell>
        <mxCell id="M6yBAGcX9ur8Zg72hbxL-20" value="" style="verticalLabelPosition=bottom;verticalAlign=top;html=1;strokeWidth=5;shape=mxgraph.arrows2.arrow;dy=0.6;dx=40;notch=0;" vertex="1" parent="1">
          <mxGeometry x="630" y="227.5" width="55" height="70" as="geometry" />
        </mxCell>
        <mxCell id="M6yBAGcX9ur8Zg72hbxL-21" value="Curated dataset is returned" style="rounded=1;whiteSpace=wrap;html=1;absoluteArcSize=1;arcSize=14;strokeWidth=5;" vertex="1" parent="1">
          <mxGeometry x="685" y="230" width="120" height="65" as="geometry" />
        </mxCell>
      </root>
    </mxGraphModel>
  </diagram>
</mxfile>
